<svg width="25" height="24" viewBox="0 0 25 24" fill="none" xmlns="http://www.w3.org/2000/svg">
<path d="M20.0619 6.59998L13.7621 2.40002C13.3726 2.14038 12.8989 2 12.4121 2C11.9253 2 11.4514 2.14038 11.0619 2.40002L4.76205 6.59998C4.34289 6.87942 4.00266 7.24176 3.76834 7.65833C3.53402 8.07489 3.41211 8.53426 3.41211 9V20C3.41211 20.5304 3.64906 21.0391 4.07101 21.4142C4.49297 21.7893 5.06537 22 5.66211 22H19.1621C19.7588 22 20.331 21.7893 20.7529 21.4142C21.1749 21.0391 21.4121 20.5304 21.4121 20V9C21.4121 8.53426 21.2899 8.07489 21.0556 7.65833C20.8213 7.24176 20.4811 6.87942 20.0619 6.59998V6.59998Z" stroke="#FF1768" stroke-width="2.02992" stroke-miterlimit="10"/>
<path d="M12.4121 13V19" stroke="#FF1768" stroke-width="2.02992" stroke-miterlimit="10"/>
</svg>
