<svg width="18" height="22" viewBox="0 0 18 22" fill="none" xmlns="http://www.w3.org/2000/svg">
<path d="M7.50055 17.75H18.0005V19.25H7.50055V17.75ZM2.37805 18.5L0.443047 20.435L1.50055 21.5L4.50055 18.5L1.50055 15.5L0.435547 16.5575L2.37805 18.5ZM7.50055 10.25H18.0005V11.75H7.50055V10.25ZM2.37805 11L0.443047 12.935L1.50055 14L4.50055 11L1.50055 8L0.435547 9.0575L2.37805 11ZM7.50055 2.75H18.0005V4.25H7.50055V2.75ZM2.37805 3.5L0.443047 5.435L1.50055 6.5L4.50055 3.5L1.50055 0.5L0.435547 1.5575L2.37805 3.5Z" fill="black"/>
</svg>
