<svg width="110" height="66" viewBox="0 0 110 66" fill="none" xmlns="http://www.w3.org/2000/svg">
<path d="M8.80994 16.0217C6.54584 16.0217 4.64999 15.2989 3.1224 13.8531C1.59482 12.3801 0.831023 10.5661 0.831023 8.41108C0.831023 6.25609 1.59482 4.45572 3.1224 3.00997C4.64999 1.53694 6.54584 0.800424 8.80994 0.800424C11.074 0.800424 12.9699 1.53694 14.4975 3.00997C16.0251 4.45572 16.7889 6.25609 16.7889 8.41108C16.7889 10.5661 16.0251 12.3801 14.4975 13.8531C12.9699 15.2989 11.074 16.0217 8.80994 16.0217ZM8.80994 65.982C6.30033 65.982 4.34993 65.2728 2.95873 63.8543C1.56754 62.4086 0.87194 60.39 0.87194 57.7985V27.2741C0.87194 24.6826 1.56754 22.6777 2.95873 21.2592C4.34993 19.8134 6.30033 19.0906 8.80994 19.0906C11.3195 19.0906 13.2699 19.8134 14.6611 21.2592C16.0523 22.7049 16.7479 24.7235 16.7479 27.315V57.7985C16.7479 60.39 16.0523 62.4086 14.6611 63.8543C13.2699 65.2728 11.3195 65.982 8.80994 65.982ZM43.0988 65.982C39.88 65.982 37.3567 65.3273 35.5291 64.018C33.7014 62.7086 32.283 60.6491 31.2737 57.8394L21.5762 31.0385C21.3307 30.3292 21.1125 29.5518 20.9215 28.7062C20.7306 27.8605 20.6351 27.0013 20.6351 26.1284C20.6351 24.0007 21.4125 22.2958 22.9674 21.0137C24.5223 19.7316 26.4045 19.0906 28.614 19.0906C32.6785 19.0906 35.229 21.2455 36.2656 25.5555L42.9351 52.0291H43.2216L49.8093 25.3509C50.3003 23.1959 51.2005 21.6138 52.5098 20.6045C53.8192 19.5952 55.4286 19.0906 57.3381 19.0906C59.4658 19.0906 61.2662 19.7725 62.7392 21.1364C64.2395 22.4731 64.9897 24.1098 64.9897 26.0465C64.9897 26.783 64.8942 27.5605 64.7033 28.3788C64.5123 29.1972 64.3077 29.9337 64.0895 30.5884L54.392 57.8394C53.41 60.6491 52.0325 62.7086 50.2594 64.018C48.4863 65.3273 46.0994 65.982 43.0988 65.982ZM80.9475 65.6547C78.1924 65.6547 75.6692 65.0818 73.3778 63.9361C71.0864 62.7632 69.2451 61.1538 67.8539 59.1079C66.49 57.0347 65.808 54.6615 65.808 51.9882C65.808 47.7055 67.3902 44.3912 70.5545 42.0453C73.746 39.6993 78.3152 38.3491 84.2618 37.9944L94.3685 37.3807V35.0484C94.3685 33.4117 93.8229 32.1705 92.7318 31.3249C91.6679 30.4793 90.2767 30.0564 88.5582 30.0564C87.1397 30.0564 85.9395 30.3019 84.9574 30.793C84.0027 31.284 82.8161 32.2387 81.3976 33.6572C79.57 35.3757 77.4968 36.235 75.1781 36.235C73.2687 36.235 71.7138 35.7167 70.5135 34.6801C69.3133 33.6163 68.7132 32.2524 68.7132 30.5884C68.7132 29.6609 68.8359 28.8153 69.0814 28.0515C69.9816 25.1873 72.2321 22.9641 75.8328 21.3819C79.4608 19.7725 83.9754 18.9678 89.3765 18.9678C93.4683 18.9678 97.0554 19.6088 100.138 20.8909C103.22 22.173 105.607 23.9597 107.298 26.2511C109.017 28.5425 109.876 31.2021 109.876 34.23V58.0031C109.876 60.7309 109.14 62.7495 107.667 64.0589C106.194 65.341 104.311 65.982 102.02 65.982C99.9196 65.982 98.1874 65.4501 96.8235 64.3862C95.4596 63.2951 94.6549 61.5766 94.4094 59.2306C94.4094 59.1761 94.4094 59.1215 94.4094 59.067C94.4094 58.9851 94.4094 58.9033 94.4094 58.8215H94.082C93.291 60.3218 92.1998 61.5766 90.8086 62.5859C89.4174 63.5952 87.8626 64.359 86.144 64.8772C84.4255 65.3955 82.6933 65.6547 80.9475 65.6547ZM86.7578 54.9343C88.0944 54.9343 89.3356 54.6888 90.4813 54.1978C91.627 53.7068 92.5544 53.0248 93.2637 52.1519C94.0002 51.2517 94.3685 50.2151 94.3685 49.0422V46.0143L86.8396 46.5462C85.1211 46.6553 83.7981 47.0918 82.8706 47.8556C81.9432 48.5921 81.4794 49.5741 81.4794 50.8016C81.4794 52.0837 81.9568 53.093 82.9116 53.8295C83.8936 54.566 85.1757 54.9343 86.7578 54.9343Z" fill="url(#paint0_linear_443_1913)"/>
<defs>
<linearGradient id="paint0_linear_443_1913" x1="101.311" y1="-0.444449" x2="-37.6435" y2="69.0655" gradientUnits="userSpaceOnUse">
<stop offset="0.17" stop-color="#FF1768"/>
<stop offset="0.85" stop-color="#F0B6CA"/>
</linearGradient>
</defs>
</svg>
